<?xml version="1.0" standalone="no"?>
<!DOCTYPE svg PUBLIC "-//W3C//DTD SVG 20010904//EN"
 "http://www.w3.org/TR/2001/REC-SVG-20010904/DTD/svg10.dtd">
<svg version="1.0" xmlns="http://www.w3.org/2000/svg"
 width="75.000000pt" height="72.000000pt" viewBox="0 0 75.000000 72.000000"
 preserveAspectRatio="xMidYMid meet">

<g transform="translate(0.000000,72.000000) scale(0.100000,-0.100000)"
fill="#000000" stroke="none">
<path d="M255 700 c-113 -36 -207 -132 -240 -243 -54 -183 54 -378 244 -437
283 -89 557 163 476 437 -58 196 -278 307 -480 243z m181 -71 c30 -28 32 -84
4 -138 -23 -46 -74 -91 -102 -91 -28 0 -17 24 13 28 72 11 121 139 67 176 -70
49 -241 -15 -278 -104 -24 -58 7 -95 97 -114 17 -4 43 -18 58 -32 14 -13 30
-24 34 -24 5 0 41 30 80 66 40 37 74 64 77 62 2 -3 -31 -39 -74 -79 -60 -57
-81 -83 -85 -109 -15 -79 -99 -160 -164 -160 -74 0 -52 56 54 137 40 31 73 59
73 63 0 16 -38 39 -89 54 -73 21 -91 39 -91 91 0 133 236 259 326 174z m117
-146 c-9 -3 -13 -33 -13 -98 0 -65 4 -95 13 -98 6 -3 -1 -6 -18 -6 l-30 -1 0
105 0 105 30 -1 c17 0 24 -3 18 -6z m110 -34 c28 -31 33 -61 17 -103 -10 -27
-64 -66 -90 -65 -13 0 -13 1 0 6 39 14 60 46 60 90 0 54 -12 78 -48 98 l-27
16 30 -6 c17 -3 42 -19 58 -36z"/>
<path d="M219 225 c-81 -66 -91 -85 -46 -85 55 0 109 47 127 110 12 43 -4 38
-81 -25z"/>
</g>
</svg>
